<?xml version="1.0" encoding="UTF-8"?>
<svg xmlns="http://www.w3.org/2000/svg" width="32" height="32" viewBox="0 0 32 32" fill="none">
  <!-- Green circular background -->
  <circle cx="16" cy="16" r="15" fill="#10B981"/>

  <!-- Trachea -->
  <path d="M15.5 7V16M16.5 7V16" stroke="white" stroke-width="1.5" stroke-linecap="round"/>

  <!-- Left Lung -->
  <path d="M15.5 16C12 14.5 9.5 11 9.5 9C9.5 8 8 8 7 9.5C6 11 5.5 14 5.5 17C5.5 20 7 25 9.5 25C11.5 25 12.5 22.5 13.5 20.5C14.5 18.5 15.5 17.5 15.5 16Z"
        fill="white"/>

  <!-- Right Lung -->
  <path d="M16.5 16C20 14.5 22.5 11 22.5 9C22.5 8 24 8 25 9.5C26 11 26.5 14 26.5 17C26.5 20 25 25 22.5 25C20.5 25 19.5 22.5 18.5 20.5C17.5 18.5 16.5 17.5 16.5 16Z"
        fill="white"/>
</svg>

